<svg width="700" height="351" viewBox="0 0 700 351" fill="none" xmlns="http://www.w3.org/2000/svg">
<g clip-path="url(#clip0_2109_3)">
<path d="M630.005 336.68C621.635 327.38 617.115 315.11 616.065 302.81C615.065 290.86 617.475 278.27 625.195 268.7C632.735 259.33 644.595 255.12 656.275 255.14C668.165 255.14 680.035 259.63 688.085 268.7C696.365 278 700.005 290.53 700.005 302.81C700.005 314.81 696.435 326.99 688.835 336.45C685.37 340.712 680.992 344.143 676.025 346.488C671.058 348.833 665.627 350.033 660.135 350C654.46 350.008 648.848 348.827 643.658 346.533C638.468 344.239 633.817 340.882 630.005 336.68ZM696.205 0C692.811 74.28 689.995 148.58 687.755 222.9H621.755C613.395 148.533 604.478 74.2333 595.005 0H696.205Z" fill="black"/>
<path d="M106.695 252.18C104.026 248.519 100.33 245.734 96.0746 244.18C91.6146 242.47 86.2446 242.04 80.4146 242.32C71.8046 242.73 60.3046 247.43 54.3446 253.77C48.5646 259.88 45.0046 271.58 45.0046 279.67C45.0046 288.06 48.5046 300.67 55.5746 306.48C63.8846 313.35 75.2746 315.48 85.8446 315.13C99.4346 314.64 113.225 308.31 118.895 295.13L74.2046 296.8L73.8146 268.6L156.415 263.87L157.525 304.08C153.999 312.4 148.987 320.007 142.735 326.53C136.185 333.53 126.235 339.93 117.415 343.53C106.169 348.053 94.1235 350.254 82.0046 350C67.2846 349.61 52.7946 347.52 39.0046 341.13C27.4846 335.8 17.2046 327.68 10.1346 317.05C3.37819 306.598 -0.145472 294.385 0.00460168 281.94C-0.0124126 269.271 3.44643 256.84 10.0046 246C16.9796 234.853 26.5972 225.6 38.0046 219.06C50.7979 211.777 64.9967 207.304 79.6546 205.94C95.5946 204.28 114.165 205.23 129.045 214.23C141.605 221.83 151.305 234.37 154.205 248.98L106.695 252.18Z" fill="black"/>
<path d="M260.695 348.87C249.361 329.663 237.941 310.493 226.435 291.36L221.675 291.54C222.388 310.66 223.101 329.78 223.815 348.9H178.915C177.368 298.52 175.821 248.14 174.275 197.76L243.225 190.76C254.225 190.33 265.225 189.97 275.665 194.26C284.575 197.95 291.595 203.53 296.455 211.1C301.315 218.67 303.815 227.68 304.455 237.39C305.105 246.79 302.235 259.3 296.965 267.25C290.844 276.204 281.935 282.884 271.625 286.25C284.791 307.043 297.861 327.9 310.835 348.82L260.695 348.87ZM220.575 262L242.475 260.77C248.475 260.43 252.945 258.77 255.835 255.72C258.725 252.67 260.045 248.44 259.835 243.01C259.615 237.89 257.895 233.95 254.705 231.25C251.515 228.55 246.995 227.43 241.165 227.88L219.385 229.57C219.798 240.37 220.195 251.18 220.575 262Z" fill="black"/>
<path d="M430.685 320.06L373.685 321.01C371.345 330.277 368.975 339.54 366.575 348.8H319.375C336.668 292.18 353.025 235.293 368.445 178.14L418.875 173.05C442.348 231.51 465.615 290.053 488.675 348.68H441.255C437.755 339.16 434.231 329.62 430.685 320.06ZM417.185 283.06C410.325 264.6 403.448 246.153 396.555 227.72C392.081 246.607 387.541 265.483 382.935 284.35L417.185 283.06Z" fill="black"/>
<path d="M596.915 155.09L600.425 197.92L537.135 202.92C537.968 213.887 538.801 224.863 539.635 235.85L586.535 233.01L589.805 273.56L542.635 275.42C544.495 299.847 546.351 324.277 548.205 348.71H503.305C498.951 287.77 494.601 226.827 490.255 165.88L596.915 155.09Z" fill="black"/>
<path d="M35.8546 159.19L75.9146 156L76.2346 197.33L0.00463867 205V3.15L35.3146 3.09L35.8546 159.19Z" fill="black"/>
<path d="M171.575 157.49L125.795 161.39C123.601 171.91 121.408 182.437 119.215 192.97L81.3746 196.8C96.2346 132.167 111.141 67.5667 126.095 2.99999L166.815 2.92999C182.941 63.1367 199.711 123.187 217.125 183.08L179.125 186.92C176.585 177.113 174.068 167.303 171.575 157.49ZM161.935 118.76C156.941 98.9 152.008 79.0333 147.135 59.16C142.895 79.6133 138.648 100.067 134.395 120.52L161.935 118.76Z" fill="black"/>
<path d="M322.625 87.13C319.406 95.4336 314.069 102.75 307.145 108.35C300.395 113.81 289.555 117.58 280.855 117.8L263.155 119C263.728 138.753 264.305 158.503 264.885 178.25L228.885 181.89C227.418 122.19 225.945 62.49 224.465 2.78999L277.245 2.70999C287.455 2.70999 296.245 5.13999 303.535 9.94999C310.888 14.8768 316.728 21.7488 320.405 29.8C324.455 38.31 326.585 49.8 326.935 58.94C327.255 67.72 325.895 78.76 322.625 87.13ZM290.625 60.21C290.211 47.65 285.005 41.49 275.005 41.73L260.895 42.07L262.005 80.16L276.175 79.51C286.241 79.05 291.071 72.6167 290.665 60.21H290.625Z" fill="black"/>
<path d="M374.005 158C363.215 152.27 354.425 141.19 348.635 129.75C341.635 115.85 338.635 100.7 338.025 86.02C337.415 71.34 339.285 55.88 345.025 41.38C349.765 29.49 357.375 17.59 367.505 10.78C378.125 3.59 387.625 0 399.795 0C411.965 0 422.075 3.63 433.215 10.31C443.675 16.58 452.365 27.31 458.385 38.5C464.987 51.1074 468.778 64.9964 469.495 79.21C470.488 93.376 468.319 107.586 463.145 120.81C458.325 132.7 450.645 144.27 440.745 151.58C430.115 159.43 420.275 164.16 407.875 165.41C395.475 166.66 385.485 164.08 374.005 158ZM427.005 111.09C432.845 102.09 433.875 90.7 433.375 81.09C432.875 71.48 430.705 60.09 423.905 51.59C418.255 44.59 410.905 40.96 401.905 41.2C392.905 41.44 385.635 45.36 380.905 53C375.235 62.12 374.025 73.62 374.485 84.13C374.945 94.64 377.205 105.77 383.705 114.21C389.185 121.34 396.705 124.5 405.975 123.79C415.245 123.08 422.005 118.68 426.925 111.05L427.005 111.09Z" fill="black"/>
<path d="M555.845 148.84C545.845 131.507 536.015 114.043 526.355 96.45L522.525 96.7L526.275 151.83L490.275 155.47L480.795 2.38999L536.465 2.29999C546.665 2.29999 555.465 4.29999 562.865 8.29999C570.029 12.0689 576.028 17.7222 580.215 24.65C584.454 31.7501 586.958 39.75 587.525 48C588.305 57.71 586.605 66.33 582.405 74C578.205 81.67 571.595 87.25 562.595 91C573.575 109.04 584.731 126.97 596.065 144.79L555.845 148.84ZM520.595 68.28L538.215 67.47C543.055 67.25 546.591 65.7667 548.825 63.02C551.058 60.2733 551.988 56.4167 551.615 51.45C551.275 46.75 549.755 43.09 547.085 40.45C544.415 37.81 540.725 36.55 536.025 36.67L518.475 37.11C519.175 47.5033 519.881 57.8933 520.595 68.28Z" fill="black"/>
</g>
<defs>
<clipPath id="clip0_2109_3">
<rect width="700" height="350.03" fill="white" transform="translate(0.00463867)"/>
</clipPath>
</defs>
</svg>
